<svg width="24" height="24" viewBox="0 0 24 24" fill="none" xmlns="http://www.w3.org/2000/svg">
<path d="M11 17.0001H13V11.0001H11V17.0001ZM12 9.00006C12.2833 9.00006 12.521 8.90406 12.713 8.71206C12.9043 8.52073 13 8.28339 13 8.00006C13 7.71673 12.9043 7.47906 12.713 7.28706C12.521 7.09573 12.2833 7.00006 12 7.00006C11.7167 7.00006 11.4793 7.09573 11.288 7.28706C11.096 7.47906 11 7.71673 11 8.00006C11 8.28339 11.096 8.52073 11.288 8.71206C11.4793 8.90406 11.7167 9.00006 12 9.00006ZM12 22.0001C9.68333 21.4167 7.771 20.0874 6.263 18.0121C4.75433 15.9374 4 13.6334 4 11.1001V5.00006L12 2.00006L20 5.00006V11.1001C20 13.6334 19.246 15.9374 17.738 18.0121C16.2293 20.0874 14.3167 21.4167 12 22.0001Z" fill="#6F22A4"/>
</svg>
