<svg width="47" height="40" viewBox="0 0 47 40" fill="none" xmlns="http://www.w3.org/2000/svg">
<g clip-path="url(#clip0_79_677)">
<path d="M8.51024 31.1309H17.4239C17.4179 30.3365 17.5724 29.549 17.8781 28.8158C18.1838 28.0825 18.6344 27.4185 19.2029 26.8635C20.0503 26.02 21.1282 25.4458 22.301 25.2131C23.4739 24.9803 24.6893 25.0995 25.7946 25.5555C26.8999 26.0115 27.8458 26.784 28.5133 27.7761C29.1809 28.7681 29.5403 29.9352 29.5464 31.1309H38.3412L42.9801 18.2544C43.2324 18.333 43.4957 18.3707 43.76 18.3658C44.267 18.3658 44.7626 18.2154 45.1841 17.9337C45.6056 17.6519 45.9341 17.2515 46.128 16.783C46.3218 16.3145 46.3723 15.799 46.2732 15.3018C46.174 14.8046 45.9295 14.348 45.5708 13.9898C45.212 13.6315 44.755 13.3877 44.2577 13.2893C43.7603 13.1908 43.2449 13.2421 42.7767 13.4366C42.3085 13.6312 41.9086 13.9602 41.6274 14.3821C41.3463 14.804 41.1966 15.2999 41.1973 15.8069C41.1967 16.3407 41.3658 16.861 41.6802 17.2925L39.0469 19.4838C35.3329 22.5255 33.0339 21.1142 33.7396 16.4048L34.1481 13.7307C34.2946 13.7615 34.4443 13.774 34.5938 13.7679C35.1971 13.7669 35.7806 13.5524 36.241 13.1624C36.7014 12.7725 37.0089 12.2322 37.1092 11.6373C37.2095 11.0424 37.096 10.4312 36.7889 9.91186C36.4817 9.39256 36.0008 8.99869 35.4311 8.79997C34.8614 8.60125 34.2399 8.61051 33.6764 8.82611C33.1129 9.0417 32.6439 9.44973 32.3523 9.97794C32.0608 10.5062 31.9656 11.1205 32.0835 11.7122C32.2015 12.3039 32.525 12.8347 32.9968 13.2108L32.3691 14.2136C29.2493 18.8895 26.9503 17.1068 26.0553 12.4717L24.4285 4.93593C24.8902 4.74456 25.2846 4.42033 25.5617 4.0044C25.8388 3.58846 25.986 3.09958 25.9847 2.59981C25.9692 1.90681 25.6837 1.24725 25.1891 0.761633C24.6945 0.276015 24.0298 0.00273138 23.3366 0C22.6582 0.000982444 22.0079 0.270902 21.5282 0.750587C21.0485 1.23027 20.7786 1.88058 20.7776 2.55896C20.7729 3.12019 20.9566 3.66678 21.2993 4.11121C21.6421 4.55564 22.1241 4.87221 22.6681 5.01021L21.591 9.31476C20.7368 13.2479 19.6226 21.1105 14.6309 14.3955L13.8176 13.2813C14.1466 13.0427 14.4151 12.7302 14.6015 12.369C14.7879 12.0078 14.8871 11.6079 14.8909 11.2015C14.8909 10.6954 14.7408 10.2006 14.4597 9.7798C14.1785 9.35899 13.7788 9.031 13.3112 8.83731C12.8436 8.64363 12.3291 8.59296 11.8327 8.6917C11.3363 8.79043 10.8804 9.03415 10.5225 9.39203C10.1646 9.7499 9.92091 10.2059 9.82217 10.7023C9.72343 11.1986 9.77411 11.7132 9.96779 12.1808C10.1615 12.6483 10.4895 13.048 10.9103 13.3292C11.3311 13.6104 11.8258 13.7604 12.332 13.7604C12.5196 13.754 12.7062 13.7291 12.8891 13.6862L13.0748 15.4318C13.409 17.805 13.8176 21.0028 11.1063 20.8505C9.773 20.7762 9.24933 20.3305 8.21311 19.5877L5.28275 17.5079C5.62054 17.0665 5.8033 16.5261 5.80271 15.9703C5.80345 15.4633 5.65378 14.9675 5.37263 14.5455C5.09149 14.1236 4.69151 13.7946 4.22331 13.6C3.75511 13.4055 3.23972 13.3542 2.74237 13.4527C2.24501 13.5511 1.78804 13.7949 1.42927 14.1532C1.07051 14.5114 0.826066 14.968 0.726883 15.4653C0.6277 15.9625 0.678232 16.4779 0.872085 16.9464C1.06594 17.4149 1.3944 17.8153 1.81591 18.0971C2.23742 18.3789 2.73303 18.5292 3.24004 18.5292C3.5583 18.5247 3.87302 18.4618 4.16855 18.3435L8.51024 31.1309ZM23.3366 1.15135C23.6159 1.15135 23.8889 1.23421 24.1211 1.38946C24.3533 1.5447 24.5341 1.76534 24.6409 2.02344C24.7476 2.28155 24.7753 2.56551 24.7205 2.83938C24.6658 3.11325 24.531 3.36472 24.3332 3.56195C24.1355 3.75918 23.8837 3.8933 23.6097 3.94734C23.3356 4.00137 23.0518 3.97289 22.7939 3.8655C22.5361 3.75811 22.316 3.57664 22.1613 3.34406C22.0067 3.11148 21.9245 2.83825 21.9253 2.55896C21.9263 2.1853 22.0754 1.82727 22.34 1.5634C22.6045 1.29953 22.9629 1.15135 23.3366 1.15135ZM43.6709 14.3213C43.9757 14.325 44.2726 14.419 44.5239 14.5914C44.7753 14.7638 44.97 15.0069 45.0832 15.2899C45.1964 15.5729 45.2232 15.8831 45.1602 16.1814C45.0971 16.4796 44.947 16.7525 44.7289 16.9654C44.5107 17.1783 44.2343 17.3218 43.9347 17.3777C43.635 17.4335 43.3255 17.3993 43.0453 17.2793C42.7651 17.1592 42.5268 16.9588 42.3605 16.7033C42.1941 16.4479 42.1073 16.1488 42.111 15.844C42.1129 15.6415 42.1549 15.4413 42.2344 15.255C42.3139 15.0687 42.4295 14.8999 42.5744 14.7584C42.7194 14.6169 42.8909 14.5055 43.079 14.4304C43.2672 14.3554 43.4683 14.3183 43.6709 14.3213ZM3.18804 14.3213C3.39657 14.311 3.605 14.3432 3.8007 14.416C3.9964 14.4887 4.17527 14.6005 4.32648 14.7444C4.47769 14.8884 4.59807 15.0616 4.68033 15.2535C4.76259 15.4453 4.805 15.6519 4.805 15.8607C4.805 16.0695 4.76259 16.2761 4.68033 16.468C4.59807 16.6599 4.47769 16.8331 4.32648 16.977C4.17527 17.121 3.9964 17.2327 3.8007 17.3055C3.605 17.3782 3.39657 17.4104 3.18804 17.4002C2.78252 17.3924 2.39659 17.2243 2.1147 16.9326C1.83281 16.641 1.6779 16.2496 1.68387 15.844C1.68138 15.6437 1.71895 15.4448 1.79436 15.2592C1.86978 15.0736 1.98151 14.9049 2.12302 14.7631C2.26452 14.6212 2.43294 14.5091 2.61838 14.4332C2.80382 14.3573 3.00255 14.3193 3.2029 14.3213H3.18804ZM12.2948 9.65645C12.6981 9.65841 13.0843 9.81947 13.3694 10.1046C13.6546 10.3898 13.8156 10.7759 13.8176 11.1792C13.8176 11.588 13.6552 11.98 13.3661 12.2691C13.0771 12.5581 12.685 12.7205 12.2763 12.7205C11.8675 12.7205 11.4754 12.5581 11.1864 12.2691C10.8973 11.98 10.7349 11.588 10.7349 11.1792C10.751 10.7741 10.9217 10.3905 11.2118 10.1073C11.5019 9.82412 11.8894 9.66278 12.2948 9.65645ZM34.5195 9.65645C34.7219 9.65645 34.9224 9.69632 35.1094 9.77378C35.2964 9.85124 35.4663 9.96477 35.6094 10.1079C35.7525 10.251 35.8661 10.4209 35.9435 10.6079C36.021 10.7949 36.0608 10.9954 36.0608 11.1978C36.0608 11.4002 36.021 11.6006 35.9435 11.7876C35.8661 11.9746 35.7525 12.1445 35.6094 12.2876C35.4663 12.4308 35.2964 12.5443 35.1094 12.6218C34.9224 12.6992 34.7219 12.7391 34.5195 12.7391C34.1107 12.7391 33.7187 12.5767 33.4296 12.2876C33.1406 11.9986 32.9782 11.6066 32.9782 11.1978C32.9782 10.789 33.1406 10.3969 33.4296 10.1079C33.7187 9.81884 34.1107 9.65645 34.5195 9.65645ZM8.52138 34.7038H18.6012C18.7789 34.9555 18.9777 35.1915 19.1955 35.4095C20.3275 36.5423 21.8614 37.1818 23.4629 37.1885C25.0738 37.1745 26.6166 36.5368 27.7674 35.4095C27.9852 35.1915 28.184 34.9555 28.3617 34.7038H38.3895V40H8.51024V34.6927L8.52138 34.7038Z" fill="#FFBC1D"/>
<path fill-rule="evenodd" clip-rule="evenodd" d="M23.4628 26.9378C24.2921 26.9378 25.1028 27.1837 25.7924 27.6445C26.4819 28.1052 27.0194 28.7601 27.3367 29.5263C27.6541 30.2925 27.7371 31.1356 27.5753 31.949C27.4135 32.7624 27.0142 33.5095 26.4278 34.0959C25.8414 34.6823 25.0942 35.0817 24.2808 35.2435C23.4674 35.4053 22.6243 35.3223 21.8581 35.0049C21.0919 34.6875 20.4371 34.1501 19.9763 33.4605C19.5156 32.771 19.2697 31.9603 19.2697 31.1309C19.2692 30.5801 19.3773 30.0347 19.5878 29.5257C19.7984 29.0168 20.1072 28.5543 20.4967 28.1649C20.8862 27.7754 21.3486 27.4665 21.8576 27.256C22.3665 27.0454 22.912 26.9373 23.4628 26.9378V26.9378Z" fill="#F52B26"/>
</g>
<defs>
<clipPath id="clip0_79_677">
<rect width="45.6379" height="40" fill="white" transform="translate(0.68103)"/>
</clipPath>
</defs>
</svg>
