<svg width="24" height="24" viewBox="0 0 24 24" fill="none" xmlns="http://www.w3.org/2000/svg">
<path d="M9.6 15.6L11 14.15L8.85 12L11 9.85L9.6 8.4L6 12L9.6 15.6ZM14.4 15.6L18 12L14.4 8.4L13 9.85L15.15 12L13 14.15L14.4 15.6ZM5 21C4.45 21 3.979 20.8043 3.587 20.413C3.19567 20.021 3 19.55 3 19V5C3 4.45 3.19567 3.979 3.587 3.587C3.979 3.19567 4.45 3 5 3H9.2C9.41667 2.4 9.77933 1.91667 10.288 1.55C10.796 1.18333 11.3667 1 12 1C12.6333 1 13.2043 1.18333 13.713 1.55C14.221 1.91667 14.5833 2.4 14.8 3H19C19.55 3 20.021 3.19567 20.413 3.587C20.8043 3.979 21 4.45 21 5V19C21 19.55 20.8043 20.021 20.413 20.413C20.021 20.8043 19.55 21 19 21H5ZM12 4.25C12.2167 4.25 12.396 4.179 12.538 4.037C12.6793 3.89567 12.75 3.71667 12.75 3.5C12.75 3.28333 12.6793 3.104 12.538 2.962C12.396 2.82067 12.2167 2.75 12 2.75C11.7833 2.75 11.6043 2.82067 11.463 2.962C11.321 3.104 11.25 3.28333 11.25 3.5C11.25 3.71667 11.321 3.89567 11.463 4.037C11.6043 4.179 11.7833 4.25 12 4.25Z" fill="#3496E0"/>
</svg>
