<svg width="37" height="20" viewBox="0 0 37 20" fill="none" xmlns="http://www.w3.org/2000/svg">
<g clip-path="url(#clip0_104_31)">
<path fill-rule="evenodd" clip-rule="evenodd" d="M0.701822 5.50459H10.2612C10.3508 5.50459 10.4396 5.52225 10.5225 5.55656C10.6053 5.59088 10.6806 5.64117 10.744 5.70458C10.8074 5.76798 10.8577 5.84326 10.892 5.9261C10.9263 6.00894 10.944 6.09773 10.944 6.1874V19.3172C10.944 19.4069 10.9263 19.4956 10.892 19.5785C10.8577 19.6613 10.8074 19.7366 10.744 19.8C10.6806 19.8634 10.6053 19.9137 10.5225 19.948C10.4396 19.9823 10.3508 20 10.2612 20H0.701822C0.52073 20 0.347054 19.9281 0.219003 19.8C0.0909511 19.672 0.0190125 19.4983 0.0190125 19.3172L0.0190125 6.1874C0.0190125 6.0063 0.0909511 5.83263 0.219003 5.70458C0.347054 5.57653 0.52073 5.50459 0.701822 5.50459ZM20.5935 2.83952V9.32471H18.3676V5.23086L17.008 5.7723L16.4064 4.17807L18.7105 2.83952H20.5935ZM7.83974 14.8744H3.32778V13.1779L4.18204 12.3507C4.36854 12.1793 4.54601 12.0108 4.71446 11.8394L5.13256 11.4303C5.24547 11.3167 5.34628 11.1917 5.43336 11.0573C5.50344 10.9665 5.5583 10.8649 5.59579 10.7565C5.61385 10.6868 5.62294 10.615 5.62286 10.5429C5.63237 10.48 5.62319 10.4157 5.59645 10.3579C5.56971 10.3002 5.5266 10.2515 5.47246 10.2181C5.30511 10.1616 5.12839 10.1381 4.95209 10.1489C4.51656 10.1457 4.08164 10.182 3.65264 10.2572L3.44509 10.2963L3.32778 8.59678C4.01575 8.35443 4.74005 8.23134 5.46946 8.23282C6.09994 8.19381 6.72459 8.37335 7.23814 8.74116C7.44832 8.90855 7.61573 9.12346 7.72659 9.3682C7.83746 9.61294 7.88861 9.88052 7.87583 10.1489C7.9003 10.6383 7.79662 11.1256 7.57504 11.5626C7.289 11.9954 6.91233 12.3607 6.47111 12.6335L5.81236 13.0967H7.83974V14.8714V14.8744ZM31.0312 11.1866C31.9978 11.1866 32.6996 11.324 33.1368 11.5987C33.5739 11.8735 33.7925 12.3598 33.7925 13.0576C33.8058 13.3395 33.7608 13.6211 33.6602 13.8848C33.5515 14.0968 33.3899 14.2771 33.1909 14.4082C33.399 14.5606 33.5749 14.7528 33.7083 14.9737C33.8261 15.2211 33.8799 15.4942 33.8647 15.7678C33.8647 16.588 33.6511 17.1545 33.224 17.4673C32.7969 17.7801 32.1371 17.9355 31.2448 17.9335C30.6573 17.9322 30.0716 17.8697 29.4971 17.747L29.1723 17.6778L29.2174 15.9422C29.9734 16.0084 30.5118 16.0415 30.8327 16.0415C31.0477 16.0522 31.2632 16.034 31.4734 15.9874C31.523 15.9718 31.5659 15.9398 31.5949 15.8966C31.6238 15.8534 31.6372 15.8016 31.6328 15.7497C31.6377 15.702 31.6301 15.6538 31.6105 15.61C31.591 15.5662 31.5603 15.5283 31.5215 15.5001C31.3966 15.4278 31.2535 15.3934 31.1094 15.4008H29.7197V13.6562H31.0192C31.3741 13.6562 31.5516 13.5569 31.5516 13.3554C31.5516 13.1539 31.326 13.0546 30.8718 13.0546C30.571 13.0546 30.1108 13.0787 29.5122 13.1238L29.2565 13.1448L29.1963 11.4724C29.7901 11.3013 30.4019 11.2003 31.0192 11.1716L31.0312 11.1866ZM13.7203 0H23.2797C23.4607 0 23.6344 0.0719386 23.7625 0.19999C23.8905 0.328042 23.9625 0.501717 23.9625 0.682809V19.3322C23.9625 19.5133 23.8905 19.687 23.7625 19.8151C23.6344 19.9431 23.4607 20.015 23.2797 20.015H13.7203C13.5392 20.015 13.3656 19.9431 13.2375 19.8151C13.1094 19.687 13.0375 19.5133 13.0375 19.3322V0.682809C13.0375 0.501717 13.1094 0.328042 13.2375 0.19999C13.3656 0.0719386 13.5392 0 13.7203 0ZM26.7388 9.12919H36.2982C36.479 9.12998 36.6522 9.20218 36.7801 9.33006C36.908 9.45794 36.9802 9.63115 36.981 9.812V19.3172C36.981 19.4983 36.909 19.672 36.781 19.8C36.6529 19.9281 36.4792 20 36.2982 20H26.7388C26.5577 20 26.3841 19.9281 26.256 19.8C26.1279 19.672 26.056 19.4983 26.056 19.3172V9.812C26.056 9.63091 26.1279 9.45724 26.256 9.32918C26.3841 9.20113 26.5577 9.12919 26.7388 9.12919Z" fill="#7E838D"/>
</g>
<defs>
<clipPath id="clip0_104_31">
<rect width="36.9619" height="20" fill="white" transform="translate(0.0190125)"/>
</clipPath>
</defs>
</svg>
