<svg width="24" height="24" viewBox="0 0 24 24" fill="none" xmlns="http://www.w3.org/2000/svg">
<path fill-rule="evenodd" clip-rule="evenodd" d="M6 2.00012C5.20435 2.00012 4.44129 2.31619 3.87868 2.8788C3.31607 3.44141 3 4.20447 3 5.00012V19.0001C3 19.7958 3.31607 20.5588 3.87868 21.1214C4.44129 21.6841 5.20435 22.0001 6 22.0001H12C12.7956 22.0001 13.5587 21.6841 14.1213 21.1214C14.6839 20.5588 15 19.7958 15 19.0001V5.00012C15 4.20447 14.6839 3.44141 14.1213 2.8788C13.5587 2.31619 12.7956 2.00012 12 2.00012H6ZM16.293 7.29312C16.4805 7.10565 16.7348 7.00034 17 7.00034C17.2652 7.00034 17.5195 7.10565 17.707 7.29312L21.707 11.2931C21.8945 11.4806 21.9998 11.735 21.9998 12.0001C21.9998 12.2653 21.8945 12.5196 21.707 12.7071L17.707 16.7071C17.5184 16.8893 17.2658 16.9901 17.0036 16.9878C16.7414 16.9855 16.4906 16.8803 16.3052 16.6949C16.1198 16.5095 16.0146 16.2587 16.0123 15.9965C16.01 15.7343 16.1108 15.4817 16.293 15.2931L18.586 13.0001H10C9.73478 13.0001 9.48043 12.8948 9.29289 12.7072C9.10536 12.5197 9 12.2653 9 12.0001C9 11.7349 9.10536 11.4806 9.29289 11.293C9.48043 11.1055 9.73478 11.0001 10 11.0001H18.586L16.293 8.70712C16.1055 8.51959 16.0002 8.26529 16.0002 8.00012C16.0002 7.73496 16.1055 7.48065 16.293 7.29312Z" fill="#FD5227"/>
</svg>
